<svg xmlns="http://www.w3.org/2000/svg" version="1.1" xmlns:xlink="http://www.w3.org/1999/xlink" xmlns:svgjs="http://svgjs.dev/svgjs" width="1000" height="1000" viewBox="0 0 1000 1000"><rect width="1000" height="1000" fill="#ffffff"></rect><g transform="matrix(0.7,0,0,0.7,149.5757605278029,427.0296577465233)"><svg viewBox="0 0 396 83" data-background-color="#f5ba41" preserveAspectRatio="xMidYMid meet" height="209" width="1000" xmlns="http://www.w3.org/2000/svg" xmlns:xlink="http://www.w3.org/1999/xlink"><g id="tight-bounds" transform="matrix(1,0,0,1,0.23999841066392946,-0.10192476391958394)"><svg viewBox="0 0 395.52 83.20384952783915" height="83.20384952783915" width="395.52"><g><svg viewBox="0 0 467.563617454509 98.3593569765805" height="83.20384952783915" width="395.52"><g><svg viewBox="0 0 467.563617454509 98.3593569765805" height="98.3593569765805" width="467.563617454509"><g><svg viewBox="0 0 467.563617454509 98.3593569765805" height="98.3593569765805" width="467.563617454509"><g><svg viewBox="0 0 467.563617454509 71.43469999999999" height="71.43469999999999" width="467.563617454509"><g><svg><g></g><g></g></svg></g><g><svg><g></g><g><svg></svg></g></svg></g><g id="text-0"><svg viewBox="0 0 467.563617454509 71.43469999999999" height="71.43469999999999" width="467.563617454509"><g transform="matrix(1,0,0,1,0,13.64235)"><svg width="153.9" viewBox="1.9000000953674316 -36.650001525878906 153.88999938964844 37.05000305175781" height="37.05" data-palette-color="#ffffff"><path d="M1.9-18.1L1.9-18.1Q1.9-21.85 3.35-25.23 4.8-28.6 7.3-31.15 9.8-33.7 13.15-35.18 16.5-36.65 20.35-36.65L20.35-36.65Q24.15-36.65 27.53-35.18 30.9-33.7 33.45-31.15 36-28.6 37.48-25.23 38.95-21.85 38.95-18.1L38.95-18.1Q38.95-14.25 37.6-10.9 36.25-7.55 33.85-4.75L33.85-4.75 40.1-5.2 40.1 0 24.25 0Q23.25 0.2 22.3 0.3 21.35 0.4 20.35 0.4L20.35 0.4Q16.5 0.4 13.15-1.05 9.8-2.5 7.3-5.03 4.8-7.55 3.35-10.9 1.9-14.25 1.9-18.1ZM7.35-18.05L7.35-18.05Q7.35-15.3 8.38-12.88 9.4-10.45 11.18-8.65 12.95-6.85 15.35-5.8 17.75-4.75 20.5-4.75L20.5-4.75Q23.2-4.75 25.58-5.8 27.95-6.85 29.73-8.65 31.5-10.45 32.52-12.88 33.55-15.3 33.55-18.1L33.55-18.1Q33.55-20.85 32.5-23.28 31.45-25.7 29.68-27.5 27.9-29.3 25.5-30.35 23.1-31.4 20.4-31.4L20.4-31.4Q17.7-31.4 15.3-30.35 12.9-29.3 11.15-27.5 9.4-25.7 8.38-23.25 7.35-20.8 7.35-18.05ZM58.95 0.4L58.95 0.4Q56.05 0.4 53.55-0.55 51.05-1.5 49.17-3.23 47.3-4.95 46.22-7.38 45.15-9.8 45.15-12.8L45.15-12.8 45.15-36.25 50.65-36.25 50.65-12.95Q50.65-11.2 51.27-9.73 51.9-8.25 53.02-7.13 54.15-6 55.65-5.38 57.15-4.75 58.95-4.75L58.95-4.75Q60.7-4.75 62.22-5.38 63.75-6 64.87-7.13 66-8.25 66.65-9.73 67.3-11.2 67.3-12.95L67.3-12.95 67.3-36.25 72.8-36.25 72.8-12.8Q72.8-9.8 71.72-7.38 70.65-4.95 68.77-3.23 66.9-1.5 64.37-0.55 61.85 0.4 58.95 0.4ZM81.3 0L81.3-36.25 86.75-36.25 86.75 0 81.3 0ZM120.24-7.55L122.54-2.6Q121.94-2.15 120.87-1.63 119.79-1.1 118.34-0.65 116.89-0.2 115.12 0.1 113.34 0.4 111.34 0.4L111.34 0.4Q107.09 0.4 103.72-1.07 100.34-2.55 97.99-5.05 95.64-7.55 94.39-10.85 93.14-14.15 93.14-17.85L93.14-17.85Q93.14-21.95 94.62-25.4 96.09-28.85 98.64-31.35 101.19-33.85 104.62-35.25 108.04-36.65 111.89-36.65L111.89-36.65Q113.34-36.65 114.84-36.45 116.34-36.25 117.67-35.9 118.99-35.55 120.02-35.08 121.04-34.6 121.59-34.1L121.59-34.1Q121.19-33.5 120.97-33.1 120.74-32.7 120.49-32.27 120.24-31.85 119.94-31.3 119.64-30.75 119.14-29.85L119.14-29.85Q118.49-30.3 117.62-30.6 116.74-30.9 115.79-31.1 114.84-31.3 113.87-31.4 112.89-31.5 112.09-31.5L112.09-31.5Q109.19-31.5 106.72-30.43 104.24-29.35 102.44-27.53 100.64-25.7 99.62-23.3 98.59-20.9 98.59-18.3L98.59-18.3Q98.59-15.75 99.57-13.4 100.54-11.05 102.27-9.2 103.99-7.35 106.42-6.25 108.84-5.15 111.74-5.15L111.74-5.15Q113.29-5.15 114.74-5.45 116.19-5.75 117.37-6.15 118.54-6.55 119.32-6.95 120.09-7.35 120.24-7.55L120.24-7.55ZM155.79 0L149.04 0Q147.29-2.25 145.69-4.3 144.09-6.35 142.54-8.4 140.99-10.45 139.41-12.55 137.84-14.65 136.09-16.9L136.09-16.9Q135.44-16.2 134.84-15.63 134.24-15.05 133.54-14.45L133.54-14.45Q133.54-10.6 133.56-7.23 133.59-3.85 133.59 0L133.59 0 127.54 0 127.54-36.25 133.59-36.25 133.59-22.7Q133.59-22.25 133.52-21.83 133.44-21.4 133.44-20.95L133.44-20.95Q133.69-21.3 133.94-21.58 134.19-21.85 134.44-22.25L134.44-22.25Q137.99-25.6 141.29-29.23 144.59-32.85 148.14-36.25L148.14-36.25 155.09-36.25Q151.34-32.35 147.67-28.4 143.99-24.45 140.24-20.55L140.24-20.55Q142.34-17.85 144.27-15.33 146.19-12.8 148.06-10.3 149.94-7.8 151.84-5.25 153.74-2.7 155.79 0L155.79 0Z" opacity="1" transform="matrix(1,0,0,1,0,0)" fill="#ffffff" class="undefined-k-0"></path></svg></g><g><svg xmlns="http://www.w3.org/2000/svg" xmlns:xlink="http://www.w3.org/1999/xlink" version="1.1" x="170.7653" y="0" viewBox="6.300000190734863 11.5 87.39999389648438 77" style="enable-background:new 0 0 100 100;" xml:space="preserve" height="71.43469999999999" width="81.08301745450898" class="icon-s-0" data-fill-palette-color="accent" id="s-0"><path d="M72.3 12.3L72.3 12.3 72.3 12.3l-0.4-0.8H28.2L6.3 50l21.8 38.5h43.7L93.7 50 72.3 12.3zM33.3 25.3L9.9 47.7l18.6-32.8L33.3 25.3zM70.7 14.8l6.4 35.7L36.9 25.8 70.7 14.8zM35.5 27.3l41 25.2-41 23.3V27.3zM77 54.5l-7.2 30.8-32.6-8.1L77 54.5zM33.5 75L9.9 50.5l23.6-22.7V75zM33.2 77.6l-4.6 7.7L11.5 55.1 33.2 77.6zM35 78.6l31.4 7.9H30.2L35 78.6zM79.3 53.3l11.6-2.5L72.1 84 79.3 53.3zM90.7 48.9l-11.4 2.5-5.9-33.1L90.7 48.9zM35 24.3l-5-10.8h38.2L35 24.3z" fill="#000000" data-fill-palette-color="accent"></path></svg></g><g transform="matrix(1,0,0,1,268.71361745450895,13.642349999999997)"><svg width="198.85000000000002" viewBox="4.449999809265137 -36.650001525878906 198.83999633789062 44.150001525878906" height="44.15" data-palette-color="#ffffff"><path d="M9.95-31.15L9.95-18.1 14.9-18.1Q16.9-18.1 18.25-18.8 19.6-19.5 20.38-20.5 21.15-21.5 21.48-22.65 21.8-23.8 21.8-24.7L21.8-24.7Q21.8-25.65 21.48-26.78 21.15-27.9 20.35-28.88 19.55-29.85 18.23-30.5 16.9-31.15 14.95-31.15L14.95-31.15 9.95-31.15ZM9.95 0L4.45 0 4.45-36.25 14.35-36.25Q17.2-36.25 19.58-35.5 21.95-34.75 23.68-33.27 25.4-31.8 26.35-29.68 27.3-27.55 27.3-24.8L27.3-24.8Q27.3-22.65 26.65-20.53 26-18.4 24.55-16.73 23.1-15.05 20.75-14 18.4-12.95 15.05-12.95L15.05-12.95 9.95-12.95 9.95 0ZM38.8 0L33.3 0 33.3-36.25 43.2-36.25Q46.05-36.25 48.42-35.5 50.8-34.75 52.52-33.27 54.25-31.8 55.2-29.68 56.15-27.55 56.15-24.8L56.15-24.8Q56.15-23.3 55.85-21.83 55.55-20.35 54.87-18.98 54.2-17.6 53.15-16.43 52.1-15.25 50.6-14.45L50.6-14.45Q52.6-11.3 54.95-7.48 57.3-3.65 59.7 0L59.7 0 53.15 0Q52.15-1.55 51.07-3.25 50-4.95 48.92-6.63 47.85-8.3 46.82-9.93 45.8-11.55 44.9-12.95L44.9-12.95 43.9-12.95 38.8-12.95 38.8 0ZM38.8-31.15L38.8-18.1 43.75-18.1Q45.75-18.1 47.1-18.78 48.45-19.45 49.22-20.45 50-21.45 50.32-22.6 50.65-23.75 50.65-24.7L50.65-24.7Q50.65-25.65 50.32-26.78 50-27.9 49.2-28.88 48.4-29.85 47.07-30.5 45.75-31.15 43.8-31.15L43.8-31.15 38.8-31.15ZM61.6-18.1L61.6-18.1Q61.6-21.85 63.05-25.23 64.5-28.6 67.02-31.15 69.55-33.7 72.9-35.18 76.25-36.65 80.1-36.65L80.1-36.65Q83.9-36.65 87.27-35.18 90.65-33.7 93.17-31.15 95.7-28.6 97.17-25.23 98.65-21.85 98.65-18.1L98.65-18.1Q98.65-14.25 97.17-10.9 95.7-7.55 93.17-5.03 90.65-2.5 87.27-1.05 83.9 0.4 80.1 0.4L80.1 0.4Q76.25 0.4 72.9-1.05 69.55-2.5 67.02-5.03 64.5-7.55 63.05-10.9 61.6-14.25 61.6-18.1ZM67.05-18.05L67.05-18.05Q67.05-15.3 68.07-12.88 69.1-10.45 70.9-8.65 72.7-6.85 75.1-5.8 77.5-4.75 80.2-4.75L80.2-4.75Q82.9-4.75 85.27-5.8 87.65-6.85 89.42-8.65 91.2-10.45 92.22-12.88 93.25-15.3 93.25-18.1L93.25-18.1Q93.25-20.85 92.22-23.28 91.2-25.7 89.4-27.5 87.6-29.3 85.22-30.35 82.85-31.4 80.15-31.4L80.15-31.4Q77.45-31.4 75.05-30.35 72.65-29.3 70.87-27.5 69.1-25.7 68.07-23.25 67.05-20.8 67.05-18.05ZM97.89 7.5L97.89 7.5 97.89 2.35Q101.39 2.15 103.62-0.05 105.84-2.25 105.84-6.9L105.84-6.9 105.84-36.25 111.34-36.25 111.34-6.75Q111.34-3.4 110.34-0.8 109.34 1.8 107.54 3.63 105.74 5.45 103.27 6.43 100.79 7.4 97.89 7.5ZM144.59 0L120.09 0 120.09-36.25 143.89-36.25 143.89-31.3 125.59-31.3 125.59-20.7 141.89-20.7 141.89-15.65 125.59-15.65 125.59-5.05 144.59-5.05 144.59 0ZM174.89-7.55L177.19-2.6Q176.59-2.15 175.51-1.63 174.44-1.1 172.99-0.65 171.54-0.2 169.76 0.1 167.99 0.4 165.99 0.4L165.99 0.4Q161.74 0.4 158.36-1.07 154.99-2.55 152.64-5.05 150.29-7.55 149.04-10.85 147.79-14.15 147.79-17.85L147.79-17.85Q147.79-21.95 149.26-25.4 150.74-28.85 153.29-31.35 155.84-33.85 159.26-35.25 162.69-36.65 166.54-36.65L166.54-36.65Q167.99-36.65 169.49-36.45 170.99-36.25 172.31-35.9 173.64-35.55 174.66-35.08 175.69-34.6 176.24-34.1L176.24-34.1Q175.84-33.5 175.61-33.1 175.39-32.7 175.14-32.27 174.89-31.85 174.59-31.3 174.29-30.75 173.79-29.85L173.79-29.85Q173.14-30.3 172.26-30.6 171.39-30.9 170.44-31.1 169.49-31.3 168.51-31.4 167.54-31.5 166.74-31.5L166.74-31.5Q163.84-31.5 161.36-30.43 158.89-29.35 157.09-27.53 155.29-25.7 154.26-23.3 153.24-20.9 153.24-18.3L153.24-18.3Q153.24-15.75 154.21-13.4 155.19-11.05 156.91-9.2 158.64-7.35 161.06-6.25 163.49-5.15 166.39-5.15L166.39-5.15Q167.94-5.15 169.39-5.45 170.84-5.75 172.01-6.15 173.19-6.55 173.96-6.95 174.74-7.35 174.89-7.55L174.89-7.55ZM179.74-36.25L203.29-36.25 203.29-31.05 194.14-31.05 194.14 0 188.69 0 188.69-31.05 179.74-31.05 179.74-36.25Z" opacity="1" transform="matrix(1,0,0,1,0,0)" fill="#ffffff" class="undefined-k-1"></path></svg></g></svg></g></svg></g><g transform="matrix(1,0,0,1,89.30465093381122,80.1813158)"><svg viewBox="0 0 288.95431558688654 18.178041176580503" height="18.178041176580503" width="288.95431558688654"><g transform="matrix(1,0,0,1,0,0)"><svg width="288.95431558688654" viewBox="3.8499999046325684 -36.5 754.9700317382812 47.5" height="18.178041176580503" data-palette-color="#ffffff"><path d="M7.3 0L3.85 0 3.85-15.4Q3.85-18.35 5.18-20.78 6.5-23.2 8.95-24.65 11.4-26.1 14.8-26.1L14.8-26.1Q16.55-26.1 18.38-25.58 20.2-25.05 21.78-23.78 23.35-22.5 24.25-20.25L24.25-20.25 24.3-20.25Q25.2-22.5 26.8-23.78 28.4-25.05 30.25-25.58 32.1-26.1 33.8-26.1L33.8-26.1Q37.25-26.1 39.7-24.65 42.15-23.2 43.45-20.78 44.75-18.35 44.75-15.4L44.75-15.4 44.75 0 41.3 0 41.3-15.4Q41.3-17.65 40.3-19.35 39.3-21.05 37.63-22.08 35.95-23.1 33.8-23.1L33.8-23.1Q31.6-23.1 29.85-22.08 28.1-21.05 27.08-19.3 26.05-17.55 26.05-15.4L26.05-15.4 26.05 0 22.55 0 22.55-15.4Q22.55-17.55 21.5-19.3 20.45-21.05 18.73-22.08 17-23.1 14.8-23.1L14.8-23.1Q12.7-23.1 10.98-22.08 9.25-21.05 8.28-19.35 7.3-17.65 7.3-15.4L7.3-15.4 7.3 0ZM63.35 0.65L63.35 0.65Q59.5 0.65 56.75-1.15 54-2.95 52.55-5.98 51.1-9 51.1-12.75L51.1-12.75Q51.1-16.55 52.7-19.58 54.3-22.6 57.27-24.35 60.25-26.1 64.35-26.1L64.35-26.1Q68.3-26.1 71.17-24.35 74.05-22.6 75.62-19.65 77.2-16.7 77.2-13L77.2-13 77.2 0 73.75 0 73.75-5.7 73.6-5.7Q72.9-4.2 71.5-2.73 70.1-1.25 68.07-0.3 66.05 0.65 63.35 0.65ZM64.1-2.35L64.1-2.35Q66.9-2.35 69.05-3.73 71.2-5.1 72.45-7.48 73.7-9.85 73.65-12.85L73.65-12.85Q73.65-15.8 72.5-18.1 71.35-20.4 69.25-21.75 67.15-23.1 64.25-23.1L64.25-23.1Q61.25-23.1 59.1-21.73 56.95-20.35 55.8-17.98 54.65-15.6 54.65-12.6L54.65-12.6Q54.65-9.8 55.75-7.45 56.85-5.1 58.97-3.73 61.1-2.35 64.1-2.35ZM88.4 0L84.9 0 84.9-14.85Q84.9-18.35 86.47-20.88 88.05-23.4 90.7-24.78 93.35-26.15 96.55-26.15L96.55-26.15Q99.8-26.15 102.42-24.78 105.05-23.4 106.62-20.88 108.2-18.35 108.2-14.85L108.2-14.85 108.2 0 104.7 0 104.7-14.7Q104.7-17.35 103.55-19.23 102.4-21.1 100.52-22.1 98.65-23.1 96.5-23.1L96.5-23.1Q94.4-23.1 92.55-22.13 90.7-21.15 89.55-19.28 88.4-17.4 88.4-14.7L88.4-14.7 88.4 0ZM126.79 0.65L126.79 0.65Q122.94 0.65 120.19-1.15 117.44-2.95 115.99-5.98 114.54-9 114.54-12.75L114.54-12.75Q114.54-16.55 116.14-19.58 117.74-22.6 120.72-24.35 123.69-26.1 127.79-26.1L127.79-26.1Q131.74-26.1 134.62-24.35 137.49-22.6 139.07-19.65 140.64-16.7 140.64-13L140.64-13 140.64 0 137.19 0 137.19-5.7 137.04-5.7Q136.34-4.2 134.94-2.73 133.54-1.25 131.52-0.3 129.49 0.65 126.79 0.65ZM127.54-2.35L127.54-2.35Q130.34-2.35 132.49-3.73 134.64-5.1 135.89-7.48 137.14-9.85 137.09-12.85L137.09-12.85Q137.09-15.8 135.94-18.1 134.79-20.4 132.69-21.75 130.59-23.1 127.69-23.1L127.69-23.1Q124.69-23.1 122.54-21.73 120.39-20.35 119.24-17.98 118.09-15.6 118.09-12.6L118.09-12.6Q118.09-9.8 119.19-7.45 120.29-5.1 122.42-3.73 124.54-2.35 127.54-2.35ZM165.09 10.15L152.24 10.15 152.24 7.1 164.39 7.1Q166.84 7.1 168.14 5.7 169.44 4.3 169.44 1.9L169.44 1.9 169.44-5.4 169.34-5.4Q168.44-3.95 167.04-2.6 165.64-1.25 163.72-0.4 161.79 0.45 159.29 0.45L159.29 0.45Q155.59 0.45 152.81-1.28 150.04-3 148.52-6 146.99-9 146.99-12.85L146.99-12.85Q146.99-16.6 148.54-19.58 150.09-22.55 152.99-24.3 155.89-26.05 159.94-26.05L159.94-26.05Q163.79-26.05 166.72-24.35 169.64-22.65 171.29-19.68 172.94-16.7 172.94-12.8L172.94-12.8 172.94 2.3Q172.94 5.9 170.84 8.03 168.74 10.15 165.09 10.15L165.09 10.15ZM159.84-2.6L159.84-2.6Q162.64-2.6 164.79-3.95 166.94-5.3 168.17-7.58 169.39-9.85 169.39-12.8L169.39-12.8Q169.39-15.75 168.22-18.05 167.04-20.35 164.89-21.7 162.74-23.05 159.89-23.05L159.89-23.05Q156.99-23.05 154.87-21.68 152.74-20.3 151.64-17.98 150.54-15.65 150.54-12.65L150.54-12.65Q150.54-9.85 151.64-7.58 152.74-5.3 154.84-3.95 156.94-2.6 159.84-2.6ZM199.74 0L193.49 0Q189.39 0 186.16-1.53 182.94-3.05 181.06-5.9 179.19-8.75 179.19-12.75L179.19-12.75Q179.19-16.45 180.69-19.48 182.19-22.5 184.91-24.3 187.64-26.1 191.29-26.1L191.29-26.1Q195.04-26.1 197.64-24.45 200.24-22.8 201.59-20 202.94-17.2 202.94-13.7L202.94-13.7Q202.94-13.2 202.89-12.6 202.84-12 202.74-11.55L202.74-11.55 182.89-11.55Q183.04-8.75 184.49-6.85 185.94-4.95 188.26-4 190.59-3.05 193.29-3.05L193.29-3.05 199.74-3.05 199.74 0ZM182.89-14.05L182.89-14.05 199.39-14.05Q199.39-15.05 199.19-16.28 198.99-17.5 198.46-18.7 197.94-19.9 197.01-20.9 196.09-21.9 194.66-22.53 193.24-23.15 191.19-23.15L191.19-23.15Q189.29-23.15 187.74-22.35 186.19-21.55 185.14-20.23 184.09-18.9 183.51-17.3 182.94-15.7 182.89-14.05ZM235.88 10.15L232.38 10.15 232.38 0.5Q229.58 0.15 227.33-1.28 225.08-2.7 223.76-5.1 222.43-7.5 222.43-10.65L222.43-10.65 222.43-25.5 225.93-25.5 225.93-10.8Q225.93-8.15 227.11-6.25 228.28-4.35 230.13-3.38 231.98-2.4 234.08-2.4L234.08-2.4Q236.23-2.4 238.11-3.4 239.98-4.4 241.16-6.28 242.33-8.15 242.33-10.8L242.33-10.8 242.33-25.5 245.78-25.5 245.78-10.65Q245.78-7.45 244.46-5.08 243.13-2.7 240.88-1.28 238.63 0.15 235.88 0.45L235.88 0.45 235.88 10.15ZM265.38 0.65L265.38 0.65Q261.53 0.65 258.53-1.13 255.53-2.9 253.83-5.95 252.13-9 252.13-12.75L252.13-12.75Q252.13-16.5 253.83-19.55 255.53-22.6 258.53-24.38 261.53-26.15 265.38-26.15L265.38-26.15Q269.23-26.15 272.21-24.38 275.18-22.6 276.91-19.55 278.63-16.5 278.63-12.75L278.63-12.75Q278.63-9 276.91-5.95 275.18-2.9 272.21-1.13 269.23 0.65 265.38 0.65ZM265.38-2.4L265.38-2.4Q268.23-2.4 270.43-3.78 272.63-5.15 273.86-7.5 275.08-9.85 275.08-12.75L275.08-12.75Q275.08-15.65 273.86-18 272.63-20.35 270.43-21.73 268.23-23.1 265.38-23.1L265.38-23.1Q262.48-23.1 260.31-21.73 258.13-20.35 256.91-18 255.68-15.65 255.68-12.75L255.68-12.75Q255.68-9.85 256.91-7.5 258.13-5.15 260.31-3.78 262.48-2.4 265.38-2.4ZM296.63 0.65L296.63 0.65Q293.43 0.65 290.78-0.73 288.13-2.1 286.55-4.65 284.98-7.2 284.98-10.65L284.98-10.65 284.98-25.5 288.48-25.5 288.48-10.8Q288.48-8.15 289.65-6.25 290.83-4.35 292.68-3.38 294.53-2.4 296.63-2.4L296.63-2.4Q298.78-2.4 300.65-3.4 302.53-4.4 303.68-6.28 304.83-8.15 304.83-10.8L304.83-10.8 304.83-25.5 308.33-25.5 308.33-10.65Q308.33-7.2 306.75-4.65 305.18-2.1 302.55-0.73 299.93 0.65 296.63 0.65ZM319.43 0L315.93 0 315.93-18.25Q315.93-21.65 317.85-23.58 319.78-25.5 323.18-25.5L323.18-25.5 327.57-25.5 327.57-22.45 323.88-22.45Q321.68-22.45 320.55-21.25 319.43-20.05 319.43-17.85L319.43-17.85 319.43 0ZM358.12-26.15L358.12-26.15Q354.62-26.15 351.67-24.6 348.72-23.05 346.97-20.05 345.22-17.05 345.22-12.8L345.22-12.8 345.22 11 348.72 11 348.72-5.25 348.82-5.25Q349.67-3.55 351.17-2.23 352.67-0.9 354.57-0.15 356.47 0.6 358.57 0.6L358.57 0.6Q362.02 0.6 364.85-1 367.67-2.6 369.37-5.53 371.07-8.45 371.07-12.55L371.07-12.55Q371.07-15.75 370.07-18.28 369.07-20.8 367.3-22.55 365.52-24.3 363.17-25.23 360.82-26.15 358.12-26.15ZM358.07-23.1L358.07-23.1Q360.62-23.1 362.77-21.88 364.92-20.65 366.22-18.32 367.52-16 367.52-12.75L367.52-12.75Q367.52-9.6 366.22-7.28 364.92-4.95 362.8-3.7 360.67-2.45 358.17-2.45L358.17-2.45Q355.67-2.45 353.52-3.68 351.37-4.9 350.07-7.2 348.77-9.5 348.77-12.8L348.77-12.8Q348.77-16.1 350.05-18.4 351.32-20.7 353.45-21.9 355.57-23.1 358.07-23.1ZM380.82 0L377.32 0 377.32-18.25Q377.32-21.65 379.24-23.58 381.17-25.5 384.57-25.5L384.57-25.5 388.97-25.5 388.97-22.45 385.27-22.45Q383.07-22.45 381.94-21.25 380.82-20.05 380.82-17.85L380.82-17.85 380.82 0ZM405.37 0.65L405.37 0.65Q401.52 0.65 398.52-1.13 395.52-2.9 393.82-5.95 392.12-9 392.12-12.75L392.12-12.75Q392.12-16.5 393.82-19.55 395.52-22.6 398.52-24.38 401.52-26.15 405.37-26.15L405.37-26.15Q409.22-26.15 412.19-24.38 415.17-22.6 416.89-19.55 418.62-16.5 418.62-12.75L418.62-12.75Q418.62-9 416.89-5.95 415.17-2.9 412.19-1.13 409.22 0.65 405.37 0.65ZM405.37-2.4L405.37-2.4Q408.22-2.4 410.42-3.78 412.62-5.15 413.84-7.5 415.07-9.85 415.07-12.75L415.07-12.75Q415.07-15.65 413.84-18 412.62-20.35 410.42-21.73 408.22-23.1 405.37-23.1L405.37-23.1Q402.47-23.1 400.29-21.73 398.12-20.35 396.89-18 395.67-15.65 395.67-12.75L395.67-12.75Q395.67-9.85 396.89-7.5 398.12-5.15 400.29-3.78 402.47-2.4 405.37-2.4ZM421.21 7.35L417.21 7.35 417.26 4.3 420.51 4.3Q422.76 4.3 423.86 3.1 424.96 1.9 424.96-0.3L424.96-0.3 424.96-25.5 428.46-25.5 428.46 0.1Q428.46 3.45 426.54 5.4 424.61 7.35 421.21 7.35L421.21 7.35ZM426.66-30.1L426.66-30.1Q425.66-30.1 424.91-30.85 424.16-31.6 424.16-32.6L424.16-32.6Q424.16-33.65 424.91-34.38 425.66-35.1 426.66-35.1L426.66-35.1Q427.71-35.1 428.44-34.35 429.16-33.6 429.16-32.6L429.16-32.6Q429.16-31.6 428.44-30.85 427.71-30.1 426.66-30.1ZM455.36 0L449.11 0Q445.01 0 441.79-1.53 438.56-3.05 436.69-5.9 434.81-8.75 434.81-12.75L434.81-12.75Q434.81-16.45 436.31-19.48 437.81-22.5 440.54-24.3 443.26-26.1 446.91-26.1L446.91-26.1Q450.66-26.1 453.26-24.45 455.86-22.8 457.21-20 458.56-17.2 458.56-13.7L458.56-13.7Q458.56-13.2 458.51-12.6 458.46-12 458.36-11.55L458.36-11.55 438.51-11.55Q438.66-8.75 440.11-6.85 441.56-4.95 443.89-4 446.21-3.05 448.91-3.05L448.91-3.05 455.36-3.05 455.36 0ZM438.51-14.05L438.51-14.05 455.01-14.05Q455.01-15.05 454.81-16.28 454.61-17.5 454.09-18.7 453.56-19.9 452.64-20.9 451.71-21.9 450.29-22.53 448.86-23.15 446.81-23.15L446.81-23.15Q444.91-23.15 443.36-22.35 441.81-21.55 440.76-20.23 439.71-18.9 439.14-17.3 438.56-15.7 438.51-14.05ZM480.11 0L477.21 0Q473.26 0 470.16-1.7 467.06-3.4 465.26-6.28 463.46-9.15 463.46-12.75L463.46-12.75Q463.46-16.35 465.26-19.23 467.06-22.1 470.16-23.8 473.26-25.5 477.21-25.5L477.21-25.5 480.11-25.5 480.11-22.45 476.96-22.45Q474.21-22.45 471.96-21.18 469.71-19.9 468.36-17.7 467.01-15.5 467.01-12.75L467.01-12.75Q467.01-10 468.36-7.8 469.71-5.6 471.96-4.33 474.21-3.05 476.96-3.05L476.96-3.05 480.11-3.05 480.11 0ZM499.86 0L494.26 0Q490.86 0 488.93-1.95 487.01-3.9 487.01-7.25L487.01-7.25 487.01-31.9 490.51-31.9 490.51-7.65Q490.51-5.45 491.63-4.25 492.76-3.05 494.96-3.05L494.96-3.05 499.86-3.05 499.86 0ZM499.96-22.45L482.56-22.45 482.56-25.5 499.96-25.5 499.96-22.45ZM517.7 0L505.1 0 505.1-3.05 517.1-3.05Q518.65-3.05 519.7-3.7 520.75-4.35 521.33-5.4 521.9-6.45 521.9-7.55L521.9-7.55Q521.9-8.65 521.4-9.58 520.9-10.5 519.95-11.1 519-11.7 517.55-11.7L517.55-11.7 512.2-11.7Q509.75-11.7 507.98-12.53 506.2-13.35 505.28-14.9 504.35-16.45 504.35-18.5L504.35-18.5Q504.35-20.35 505.25-21.95 506.15-23.55 507.8-24.53 509.45-25.5 511.65-25.5L511.65-25.5 523.2-25.5 523.2-22.45 512-22.45Q510.05-22.45 508.95-21.28 507.85-20.1 507.85-18.6L507.85-18.6Q507.85-17.15 508.95-16 510.05-14.85 512.25-14.85L512.25-14.85 517.25-14.85Q519.95-14.85 521.78-13.95 523.6-13.05 524.53-11.45 525.45-9.85 525.45-7.7L525.45-7.7Q525.45-5.75 524.45-3.98 523.45-2.2 521.73-1.1 520 0 517.7 0L517.7 0ZM548.5 0L545 0 545-36.5 548.5-36.5 548.5 0ZM559.69 0L556.19 0 556.19-25.5 559.69-25.5 559.69 0ZM557.94-30.1L557.94-30.1Q556.94-30.1 556.19-30.85 555.44-31.6 555.44-32.6L555.44-32.6Q555.44-33.65 556.19-34.38 556.94-35.1 557.94-35.1L557.94-35.1Q558.99-35.1 559.72-34.35 560.44-33.6 560.44-32.6L560.44-32.6Q560.44-31.6 559.72-30.85 558.99-30.1 557.94-30.1ZM570.89 0L567.39 0 567.39-36.5 570.89-36.5 570.89-14.35 579.34-14.35 586.29-25.5 590.24-25.5 582.84-13.85Q586.64-12.9 588.74-10 590.84-7.1 590.84-3.1L590.84-3.1 590.84 0 587.39 0 587.39-3.1Q587.39-5.45 586.34-7.3 585.29-9.15 583.47-10.23 581.64-11.3 579.19-11.3L579.19-11.3 570.89-11.3 570.89 0ZM617.14 0L610.89 0Q606.79 0 603.56-1.53 600.34-3.05 598.46-5.9 596.59-8.75 596.59-12.75L596.59-12.75Q596.59-16.45 598.09-19.48 599.59-22.5 602.31-24.3 605.04-26.1 608.69-26.1L608.69-26.1Q612.44-26.1 615.04-24.45 617.64-22.8 618.99-20 620.34-17.2 620.34-13.7L620.34-13.7Q620.34-13.2 620.29-12.6 620.24-12 620.14-11.55L620.14-11.55 600.29-11.55Q600.44-8.75 601.89-6.85 603.34-4.95 605.66-4 607.99-3.05 610.69-3.05L610.69-3.05 617.14-3.05 617.14 0ZM600.29-14.05L600.29-14.05 616.79-14.05Q616.79-15.05 616.59-16.28 616.39-17.5 615.86-18.7 615.34-19.9 614.41-20.9 613.49-21.9 612.06-22.53 610.64-23.15 608.59-23.15L608.59-23.15Q606.69-23.15 605.14-22.35 603.59-21.55 602.54-20.23 601.49-18.9 600.91-17.3 600.34-15.7 600.29-14.05ZM650.73 0.65L650.73 0.65Q646.88 0.65 644.13-1.15 641.38-2.95 639.93-5.98 638.48-9 638.48-12.75L638.48-12.75Q638.48-16.55 640.08-19.58 641.68-22.6 644.66-24.35 647.63-26.1 651.73-26.1L651.73-26.1Q655.68-26.1 658.56-24.35 661.43-22.6 663.01-19.65 664.58-16.7 664.58-13L664.58-13 664.58 0 661.13 0 661.13-5.7 660.98-5.7Q660.28-4.2 658.88-2.73 657.48-1.25 655.46-0.3 653.43 0.65 650.73 0.65ZM651.48-2.35L651.48-2.35Q654.28-2.35 656.43-3.73 658.58-5.1 659.83-7.48 661.08-9.85 661.03-12.85L661.03-12.85Q661.03-15.8 659.88-18.1 658.73-20.4 656.63-21.75 654.53-23.1 651.63-23.1L651.63-23.1Q648.63-23.1 646.48-21.73 644.33-20.35 643.18-17.98 642.03-15.6 642.03-12.6L642.03-12.6Q642.03-9.8 643.13-7.45 644.23-5.1 646.36-3.73 648.48-2.35 651.48-2.35ZM698.33-26.15L698.33-26.15Q694.83-26.15 691.88-24.6 688.93-23.05 687.18-20.05 685.43-17.05 685.43-12.8L685.43-12.8 685.43 11 688.93 11 688.93-5.25 689.03-5.25Q689.88-3.55 691.38-2.23 692.88-0.9 694.78-0.15 696.68 0.6 698.78 0.6L698.78 0.6Q702.23 0.6 705.05-1 707.88-2.6 709.58-5.53 711.28-8.45 711.28-12.55L711.28-12.55Q711.28-15.75 710.28-18.28 709.28-20.8 707.5-22.55 705.73-24.3 703.38-25.23 701.03-26.15 698.33-26.15ZM698.28-23.1L698.28-23.1Q700.83-23.1 702.98-21.88 705.13-20.65 706.43-18.32 707.73-16 707.73-12.75L707.73-12.75Q707.73-9.6 706.43-7.28 705.13-4.95 703-3.7 700.88-2.45 698.38-2.45L698.38-2.45Q695.88-2.45 693.73-3.68 691.58-4.9 690.28-7.2 688.98-9.5 688.98-12.8L688.98-12.8Q688.98-16.1 690.25-18.4 691.53-20.7 693.65-21.9 695.78-23.1 698.28-23.1ZM721.03 0L717.53 0 717.53-18.25Q717.53-21.65 719.45-23.58 721.38-25.5 724.78-25.5L724.78-25.5 729.18-25.5 729.18-22.45 725.48-22.45Q723.28-22.45 722.15-21.25 721.03-20.05 721.03-17.85L721.03-17.85 721.03 0ZM745.57 0.65L745.57 0.65Q741.72 0.65 738.72-1.13 735.72-2.9 734.02-5.95 732.32-9 732.32-12.75L732.32-12.75Q732.32-16.5 734.02-19.55 735.72-22.6 738.72-24.38 741.72-26.15 745.57-26.15L745.57-26.15Q749.42-26.15 752.4-24.38 755.37-22.6 757.1-19.55 758.82-16.5 758.82-12.75L758.82-12.75Q758.82-9 757.1-5.95 755.37-2.9 752.4-1.13 749.42 0.65 745.57 0.65ZM745.57-2.4L745.57-2.4Q748.42-2.4 750.62-3.78 752.82-5.15 754.05-7.5 755.27-9.85 755.27-12.75L755.27-12.75Q755.27-15.65 754.05-18 752.82-20.35 750.62-21.73 748.42-23.1 745.57-23.1L745.57-23.1Q742.67-23.1 740.5-21.73 738.32-20.35 737.1-18 735.87-15.65 735.87-12.75L735.87-12.75Q735.87-9.85 737.1-7.5 738.32-5.15 740.5-3.78 742.67-2.4 745.57-2.4Z" opacity="1" transform="matrix(1,0,0,1,0,0)" fill="#000000" class="undefined-text-1" data-fill-palette-color="secondary" id="text-1"></path></svg></g></svg></g></svg></g></svg></g></svg></g><defs></defs></svg><rect width="395.52" height="83.20384952783915" fill="none" stroke="none" visibility="hidden"></rect></g></svg></g></svg>